# xmcd
#
# Track frame offsets:
#	150
#	11852
#	24180
#	36694
#	48336
#	57123
#	69062
#	79619
#	90335
#	98892
#	109114
#	120151
#	132223
#	142345
#	153977
#	163631
#	175798
#	186487
#	197567
#	207409
#
# Disc length: 2902 seconds
#
# Revision: 1
# Processed by: cddbd v1.5.2PL0 Copyright (c) Steve Scherf et al.
# Submitted via: audiograbber 1.83.01
#
DISCID=090b5414
DTITLE=Don Gibson - The Essential Recordings CD 1
DYEAR=2012
DGENRE=Country
TTITLE0=Sweet Dreams
TTITLE1=Why am I So Lonely
TTITLE2=Just One Time
TTITLE3=Many Time I've Waited
TTITLE4=Blue Blue Day
TTITLE5=Give Myself a Party
TTITLE6=Bug Hearted Me
TTITLE7=Lonesome Number One
TTITLE8=Sweet, Sweet Girl
TTITLE9=Who Cares (For Me)
TTITLE10=Look Who's Blue
TTITLE11=I Can't Stop Loving You
TTITLE12=If You Don't Know It
TTITLE13=Take Me As I Am
TTITLE14=A Stranger To Me
TTITLE15=Blues In My Heart
TTITLE16=Didn't Work Out, Did it?
TTITLE17=You're the Only One For Me
TTITLE18=Lonesome Old House
TTITLE19=What a Fool I Was For You
EXTD=
EXTT0=
EXTT1=
EXTT2=
EXTT3=
EXTT4=
EXTT5=
EXTT6=
EXTT7=
EXTT8=
EXTT9=
EXTT10=
EXTT11=
EXTT12=
EXTT13=
EXTT14=
EXTT15=
EXTT16=
EXTT17=
EXTT18=
EXTT19=
PLAYORDER=
